{
  "accessors": [
    {
      "bufferView": 2,
      "componentType": 5126,
      "count": 2230,
      "max": [
        1.013890027999878,
        1.4441499710083008,
        1.0657399892807007
      ],
      "min": [
        -1.0659799575805664,
        -3.3132901191711426,
        -1.013890027999878
      ],
      "type": "VEC3"
    },
    {
      "bufferView": 2,
      "byteOffset": 26760,
      "componentType": 5126,
      "count": 2230,
      "max": [
        0.9998223781585693,
        1.0,
        0.9865682721138
      ],
      "min": [
        -0.9911629557609558,
        -1.0,
        -0.9998223781585693
      ],
      "type": "VEC3"
    },
    {
      "bufferView": 1,
      "componentType": 5126,
      "count": 2230,
      "max": [
        1.0,
        1.0
      ],
      "min": [
        0.0,
        0.0
      ],
      "type": "VEC2"
    },
    {
      "bufferView": 0,
      "componentType": 5125,
      "count": 4602,
      "type": "SCALAR"
    },
    {
      "bufferView": 2,
      "byteOffset": 53520,
      "componentType": 5126,
      "count": 788,
      "max": [
        0.6376500129699707,
        1.176360011100769,
        0.637660026550293
      ],
      "min": [
        -0.6376500129699707,
        -0.6370900273323059,
        -0.637660026550293
      ],
      "type": "VEC3"
    },
    {
      "bufferView": 2,
      "byteOffset": 62976,
      "componentType": 5126,
      "count": 788,
      "max": [
        0.7071068286895752,
        1.0,
        0.7071068286895752
      ],
      "min": [
        -0.7071068286895752,
        -1.0,
        -0.7071068286895752
      ],
      "type": "VEC3"
    },
    {
      "bufferView": 1,
      "byteOffset": 17840,
      "componentType": 5126,
      "count": 788,
      "max": [
        0.9492899775505066,
        0.9997100234031677
      ],
      "min": [
        0.0002899999963119626,
        0.0002899999963119626
      ],
      "type": "VEC2"
    },
    {
      "bufferView": 0,
      "byteOffset": 18408,
      "componentType": 5125,
      "count": 2340,
      "type": "SCALAR"
    },
    {
      "bufferView": 2,
      "byteOffset": 72432,
      "componentType": 5126,
      "count": 3072,
      "max": [
        0.6580399870872498,
        1.26705002784729,
        0.6580399870872498
      ],
      "min": [
        -0.6580399870872498,
        0.8559899926185608,
        -0.6580399870872498
      ],
      "type": "VEC3"
    },
    {
      "bufferView": 2,
      "byteOffset": 109296,
      "componentType": 5126,
      "count": 3072,
      "max": [
        1.0,
        1.0,
        1.0
      ],
      "min": [
        -1.0,
        -1.0,
        -1.0
      ],
      "type": "VEC3"
    },
    {
      "bufferView": 1,
      "byteOffset": 24144,
      "componentType": 5126,
      "count": 3072,
      "max": [
        13.034549713134766,
        18.747730255126953
      ],
      "min": [
        -12.034540176391602,
        15.308050155639648
      ],
      "type": "VEC2"
    },
    {
      "bufferView": 0,
      "byteOffset": 27768,
      "componentType": 5125,
      "count": 9144,
      "type": "SCALAR"
    },
    {
      "bufferView": 3,
      "componentType": 5126,
      "count": 1,
      "max": [
        0.041669998317956924
      ],
      "min": [
        0.041669998317956924
      ],
      "type": "SCALAR"
    },
    {
      "bufferView": 5,
      "componentType": 5126,
      "count": 1,
      "max": [
        0.0,
        0.3826799988746643,
        0.0,
        0.9238799810409546
      ],
      "min": [
        0.0,
        0.3826799988746643,
        0.0,
        0.9238799810409546
      ],
      "type": "VEC4"
    },
    {
      "bufferView": 3,
      "byteOffset": 4,
      "componentType": 5126,
      "count": 241,
      "max": [
        10.041669845581055
      ],
      "min": [
        0.041669998317956924
      ],
      "type": "SCALAR"
    },
    {
      "bufferView": 4,
      "componentType": 5126,
      "count": 241,
      "max": [
        578.850830078125,
        0.0,
        48.00455093383789
      ],
      "min": [
        0.0,
        -537.549072265625,
        0.0
      ],
      "type": "VEC3"
    },
    {
      "bufferView": 3,
      "byteOffset": 968,
      "componentType": 5126,
      "count": 232,
      "max": [
        10.041669845581055
      ],
      "min": [
        0.041669998317956924
      ],
      "type": "SCALAR"
    },
    {
      "bufferView": 5,
      "byteOffset": 16,
      "componentType": 5126,
      "count": 232,
      "max": [
        0.0,
        0.3826799988746643,
        0.37509000301361084,
        0.9540600180625916
      ],
      "min": [
        -0.1821500062942505,
        0.1966799944639206,
        0.0,
        0.8477799892425537
      ],
      "type": "VEC4"
    },
    {
      "bufferView": 3,
      "byteOffset": 1896,
      "componentType": 5126,
      "count": 221,
      "max": [
        10.041669845581055
      ],
      "min": [
        0.041669998317956924
      ],
      "type": "SCALAR"
    },
    {
      "bufferView": 4,
      "byteOffset": 2892,
      "componentType": 5126,
      "count": 221,
      "max": [
        -3.260190010070801,
        0.5849499702453613,
        -0.7203400135040283
      ],
      "min": [
        -5.95904016494751,
        -5.404630184173584,
        -1.089859962463379
      ],
      "type": "VEC3"
    },
    {
      "bufferView": 3,
      "byteOffset": 2780,
      "componentType": 5126,
      "count": 240,
      "max": [
        10.041669845581055
      ],
      "min": [
        0.041669998317956924
      ],
      "type": "SCALAR"
    },
    {
      "bufferView": 5,
      "byteOffset": 3728,
      "componentType": 5126,
      "count": 240,
      "max": [
        0.741100013256073,
        -0.23220999538898468,
        -0.19812999665737152,
        0.5979899764060974
      ],
      "min": [
        0.41078999638557434,
        -0.6542999744415283,
        -0.5268999934196472,
        0.36267000436782837
      ],
      "type": "VEC4"
    }
  ],
  "animations": [
    {
      "channels": [
        {
          "sampler": 0,
          "target": {
            "node": 4,
            "path": "rotation"
          }
        },
        {
          "sampler": 1,
          "target": {
            "node": 3,
            "path": "translation"
          }
        },
        {
          "sampler": 2,
          "target": {
            "node": 3,
            "path": "rotation"
          }
        },
        {
          "sampler": 3,
          "target": {
            "node": 2,
            "path": "translation"
          }
        },
        {
          "sampler": 4,
          "target": {
            "node": 2,
            "path": "rotation"
          }
        }
      ],
      "name": "Take 01",
      "samplers": [
        {
          "input": 12,
          "interpolation": "LINEAR",
          "output": 13
        },
        {
          "input": 14,
          "interpolation": "LINEAR",
          "output": 15
        },
        {
          "input": 16,
          "interpolation": "LINEAR",
          "output": 17
        },
        {
          "input": 18,
          "interpolation": "LINEAR",
          "output": 19
        },
        {
          "input": 20,
          "interpolation": "LINEAR",
          "output": 21
        }
      ]
    }
  ],
  "asset": {
    "extras": {
      "author": "Robin Butler (https://sketchfab.com/StarTrekGuy)",
      "license": "CC-BY-4.0 (http://creativecommons.org/licenses/by/4.0/)",
      "source": "https://sketchfab.com/3d-models/star-destroyer-low-poly-f9b8df8b9477478b887e2e8aec356884",
      "title": "Star Destroyer - Low Poly"
    },
    "generator": "Sketchfab-12.68.0",
    "version": "2.0"
  },
  "bufferViews": [
    {
      "buffer": 0,
      "byteLength": 64344,
      "name": "floatBufferViews",
      "target": 34963
    },
    {
      "buffer": 0,
      "byteLength": 48720,
      "byteOffset": 64344,
      "byteStride": 8,
      "name": "floatBufferViews",
      "target": 34962
    },
    {
      "buffer": 0,
      "byteLength": 146160,
      "byteOffset": 113064,
      "byteStride": 12,
      "name": "floatBufferViews",
      "target": 34962
    },
    {
      "buffer": 0,
      "byteLength": 3740,
      "byteOffset": 259224,
      "name": "floatBufferViews"
    },
    {
      "buffer": 0,
      "byteLength": 5544,
      "byteOffset": 262964,
      "byteStride": 12,
      "name": "floatBufferViews"
    },
    {
      "buffer": 0,
      "byteLength": 7568,
      "byteOffset": 268508,
      "byteStride": 16,
      "name": "floatBufferViews"
    }
  ],
  "buffers": [
    {
      "byteLength": 276076,
      "uri": "scene.bin"
    }
  ],
  "extensionsRequired": [
    "KHR_materials_pbrSpecularGlossiness"
  ],
  "extensionsUsed": [
    "KHR_materials_pbrSpecularGlossiness"
  ],
  "images": [
    {
      "uri": "textures/Material.002_emissive.jpeg"
    }
  ],
  "materials": [
    {
      "doubleSided": true,
      "extensions": {
        "KHR_materials_pbrSpecularGlossiness": {
          "diffuseFactor": [
            0.6297637195,
            0.6297637195,
            0.6297637195,
            1.0
          ],
          "glossinessFactor": 0.0,
          "specularFactor": [
            0.0,
            0.0,
            0.0
          ]
        }
      },
      "name": "Material.001"
    },
    {
      "doubleSided": true,
      "emissiveFactor": [
        1.0,
        1.0,
        1.0
      ],
      "emissiveTexture": {
        "index": 0
      },
      "extensions": {
        "KHR_materials_pbrSpecularGlossiness": {
          "diffuseFactor": [
            1.0,
            1.0,
            1.0,
            1.0
          ],
          "glossinessFactor": 0.4,
          "specularFactor": [
            1.0,
            1.0,
            1.0
          ]
        }
      },
      "name": "Material.002"
    },
    {
      "doubleSided": true,
      "extensions": {
        "KHR_materials_pbrSpecularGlossiness": {
          "diffuseFactor": [
            1.0,
            1.0,
            1.0,
            1.0
          ],
          "glossinessFactor": 0.0,
          "specularFactor": [
            0.0,
            0.0,
            0.0
          ]
        }
      },
      "name": "Material.003"
    }
  ],
  "meshes": [
    {
      "name": "Cube.003_0",
      "primitives": [
        {
          "attributes": {
            "NORMAL": 1,
            "POSITION": 0,
            "TEXCOORD_0": 2
          },
          "indices": 3,
          "material": 0,
          "mode": 4
        }
      ]
    },
    {
      "name": "Cube.003_1",
      "primitives": [
        {
          "attributes": {
            "NORMAL": 5,
            "POSITION": 4,
            "TEXCOORD_0": 6
          },
          "indices": 7,
          "material": 1,
          "mode": 4
        }
      ]
    },
    {
      "name": "Cube.003_2",
      "primitives": [
        {
          "attributes": {
            "NORMAL": 9,
            "POSITION": 8,
            "TEXCOORD_0": 10
          },
          "indices": 11,
          "material": 2,
          "mode": 4
        }
      ]
    }
  ],
  "nodes": [
    {
      "children": [
        1
      ],
      "matrix": [
        60.83549499511719,
        0.0,
        0.0,
        0.0,
        0.0,
        1.3508193451609515e-14,
        -60.83549499511719,
        0.0,
        0.0,
        60.83549499511719,
        1.3508193451609515e-14,
        0.0,
        0.0,
        0.0,
        0.0,
        1.0
      ],
      "name": "Sketchfab_model"
    },
    {
      "children": [
        2,
        3,
        4
      ],
      "name": "Root"
    },
    {
      "name": "Camera",
      "rotation": [
        0.7411007285118103,
        -0.2322102189064026,
        -0.19813019037246704,
        0.5979905724525452
      ],
      "translation": [
        -3.260190010070801,
        -5.404630184173584,
        -0.7203400135040283
      ]
    },
    {
      "name": "Cube",
      "rotation": [
        0.0,
        0.38268035650253296,
        0.0,
        0.9238808751106262
      ]
    },
    {
      "children": [
        5,
        6,
        7
      ],
      "name": "Cube.003",
      "rotation": [
        0.0,
        0.38268035650253296,
        0.0,
        0.9238808751106262
      ]
    },
    {
      "mesh": 0,
      "name": "Cube.003_0"
    },
    {
      "mesh": 1,
      "name": "Cube.003_1"
    },
    {
      "mesh": 2,
      "name": "Cube.003_2"
    }
  ],
  "samplers": [
    {
      "magFilter": 9729,
      "minFilter": 9987,
      "wrapS": 10497,
      "wrapT": 10497
    }
  ],
  "scene": 0,
  "scenes": [
    {
      "name": "Sketchfab_Scene",
      "nodes": [
        0
      ]
    }
  ],
  "textures": [
    {
      "sampler": 0,
      "source": 0
    }
  ]
}
